<?xml version="1.0" encoding="utf-8"?>
<!-- Generator: Adobe Illustrator 17.0.0, SVG Export Plug-In . SVG Version: 6.00 Build 0)  -->
<!DOCTYPE svg PUBLIC "-//W3C//DTD SVG 1.1//EN" "http://www.w3.org/Graphics/SVG/1.1/DTD/svg11.dtd" [
	<!ENTITY ns_extend "http://ns.adobe.com/Extensibility/1.0/">
	<!ENTITY ns_ai "http://ns.adobe.com/AdobeIllustrator/10.0/">
	<!ENTITY ns_graphs "http://ns.adobe.com/Graphs/1.0/">
	<!ENTITY ns_vars "http://ns.adobe.com/Variables/1.0/">
	<!ENTITY ns_imrep "http://ns.adobe.com/ImageReplacement/1.0/">
	<!ENTITY ns_sfw "http://ns.adobe.com/SaveForWeb/1.0/">
	<!ENTITY ns_custom "http://ns.adobe.com/GenericCustomNamespace/1.0/">
	<!ENTITY ns_adobe_xpath "http://ns.adobe.com/XPath/1.0/">
]>
<svg version="1.1" id="Layer_1" xmlns:x="&ns_extend;" xmlns:i="&ns_ai;" xmlns:graph="&ns_graphs;"
	 xmlns="http://www.w3.org/2000/svg" xmlns:xlink="http://www.w3.org/1999/xlink" x="0px" y="0px" width="64px" height="64px"
	 viewBox="0 0 64 64" enable-background="new 0 0 64 64" xml:space="preserve">
<metadata>
	<sfw  xmlns="&ns_sfw;">
		<slices></slices>
		<sliceSourceBounds  width="60" height="60" x="2" y="-62" bottomLeftOrigin="true"></sliceSourceBounds>
	</sfw>
</metadata>
<path fill="#FFFFFF" d="M58.25,48.04v-4.79c0-8.284-6.716-15-15-15h-7.5V15.96c2.234-1.304,3.75-3.695,3.75-6.46
	C39.5,5.362,36.138,2,32,2c-4.138,0-7.5,3.362-7.5,7.5c0,2.765,1.516,5.156,3.75,6.46v12.29h-7.5c-8.284,0-15,6.716-15,15v4.79
	C3.516,49.344,2,51.735,2,54.5C2,58.638,5.362,62,9.5,62c4.138,0,7.5-3.362,7.5-7.5c0-2.765-1.516-5.156-3.75-6.46v-4.79
	c0-4.138,3.362-7.5,7.5-7.5h7.5v12.29c-2.234,1.304-3.75,3.695-3.75,6.46c0,4.138,3.362,7.5,7.5,7.5c4.138,0,7.5-3.362,7.5-7.5
	c0-2.765-1.516-5.156-3.75-6.46V35.75h7.5c4.138,0,7.5,3.362,7.5,7.5v4.79C48.516,49.344,47,51.735,47,54.5
	c0,4.138,3.362,7.5,7.5,7.5c4.138,0,7.5-3.362,7.5-7.5C62,51.735,60.484,49.344,58.25,48.04z"/>
</svg>
