<?xml version="1.0" encoding="utf-8"?>
<!-- Generator: Adobe Illustrator 17.0.0, SVG Export Plug-In . SVG Version: 6.00 Build 0)  -->
<!DOCTYPE svg PUBLIC "-//W3C//DTD SVG 1.1//EN" "http://www.w3.org/Graphics/SVG/1.1/DTD/svg11.dtd" [
	<!ENTITY ns_extend "http://ns.adobe.com/Extensibility/1.0/">
	<!ENTITY ns_ai "http://ns.adobe.com/AdobeIllustrator/10.0/">
	<!ENTITY ns_graphs "http://ns.adobe.com/Graphs/1.0/">
	<!ENTITY ns_vars "http://ns.adobe.com/Variables/1.0/">
	<!ENTITY ns_imrep "http://ns.adobe.com/ImageReplacement/1.0/">
	<!ENTITY ns_sfw "http://ns.adobe.com/SaveForWeb/1.0/">
	<!ENTITY ns_custom "http://ns.adobe.com/GenericCustomNamespace/1.0/">
	<!ENTITY ns_adobe_xpath "http://ns.adobe.com/XPath/1.0/">
]>
<svg version="1.1" id="Layer_1" xmlns:x="&ns_extend;" xmlns:i="&ns_ai;" xmlns:graph="&ns_graphs;"
	 xmlns="http://www.w3.org/2000/svg" xmlns:xlink="http://www.w3.org/1999/xlink" x="0px" y="0px" width="26px" height="41px"
	 viewBox="0 -0.188 26 41" enable-background="new 0 -0.188 26 41" xml:space="preserve">
<metadata>
	<sfw  xmlns="&ns_sfw;">
		<slices></slices>
		<sliceSourceBounds  height="40.227" width="25.1" x="18.95" y="12.565" bottomLeftOrigin="true"></sliceSourceBounds>
	</sfw>
</metadata>
<g>
	
		<linearGradient id="SVGID_1_" gradientUnits="userSpaceOnUse" x1="589.846" y1="788.6195" x2="589.846" y2="751.0535" gradientTransform="matrix(1 0 0 1 -576.846 -750.662)">
		<stop  offset="0" style="stop-color:#951417"/>
		<stop  offset="1" style="stop-color:#FF4B48"/>
	</linearGradient>
	<path fill="url(#SVGID_1_)" stroke="#E00000" stroke-width="1.1" stroke-linecap="round" d="M13.044,0.57
		C6.471,0.57,1,6.261,1,12.437c0,2.778,1.564,6.308,2.694,8.746L13,39.055l9.262-17.872C23.392,18.745,25,15.392,25,12.437
		C25,6.261,19.617,0.57,13.044,0.57L13.044,0.57z M13.044,7.725c2.584,0.017,4.679,2.122,4.679,4.71s-2.095,4.663-4.679,4.679
		c-2.584-0.017-4.679-2.09-4.679-4.679C8.365,9.847,10.46,7.742,13.044,7.725z"/>
	<path fill="none" stroke="#FFFFFF" stroke-width="1.1" stroke-linecap="round" stroke-opacity="0.122" d="M13.031,1.677
		c-5.944,0-10.938,5.219-10.938,10.75c0,2.359,1.443,5.832,2.563,8.25l0.031,0.031L13,36.677l8.25-15.969l0.031-0.031
		c1.135-2.448,2.625-5.706,2.625-8.25C23.906,6.889,18.975,1.677,13.031,1.677z M13.031,6.646c3.168,0.021,5.781,2.601,5.781,5.781
		s-2.613,5.761-5.781,5.781c-3.168-0.02-5.75-2.61-5.75-5.781C7.281,9.255,9.863,6.666,13.031,6.646z"/>
</g>
</svg>
