<?xml version="1.0" encoding="utf-8"?>
<!-- Generator: Adobe Illustrator 17.1.0, SVG Export Plug-In . SVG Version: 6.00 Build 0)  -->
<!DOCTYPE svg PUBLIC "-//W3C//DTD SVG 1.1//EN" "http://www.w3.org/Graphics/SVG/1.1/DTD/svg11.dtd">
<svg version="1.1" id="Layer_1" xmlns="http://www.w3.org/2000/svg" xmlns:xlink="http://www.w3.org/1999/xlink" x="0px" y="0px"
	 viewBox="0 0 64 64" enable-background="new 0 0 64 64" xml:space="preserve">
<path fill="#FFFFFF" d="M51,40c-1.4,0-2.8,0.3-4,0.8l-9.2-18.4c3.1-1.9,5.2-5.4,5.2-9.3c0-6.1-4.9-11-11-11S21,6.9,21,13
	c0,3.9,2.1,7.4,5.2,9.3L17,40.8c-1.2-0.5-2.6-0.8-4-0.8C6.9,40,2,44.9,2,51s4.9,11,11,11c5.7,0,10.4-4.4,10.9-10h16.1
	c0.5,5.6,5.2,10,10.9,10c6.1,0,11-4.9,11-11S57.1,40,51,40z M40.1,50H23.9c-0.3-3.5-2.3-6.6-5.2-8.3L28,23.2c1.2,0.5,2.6,0.8,4,0.8
	c1.4,0,2.8-0.3,4-0.8l9.2,18.4C42.4,43.4,40.4,46.5,40.1,50z"/>
</svg>
