<?xml version="1.0" encoding="utf-8"?>
<!-- Generator: Adobe Illustrator 17.0.0, SVG Export Plug-In . SVG Version: 6.00 Build 0)  -->
<!DOCTYPE svg [
	<!ENTITY ns_extend "http://ns.adobe.com/Extensibility/1.0/">
	<!ENTITY ns_ai "http://ns.adobe.com/AdobeIllustrator/10.0/">
	<!ENTITY ns_graphs "http://ns.adobe.com/Graphs/1.0/">
	<!ENTITY ns_vars "http://ns.adobe.com/Variables/1.0/">
	<!ENTITY ns_imrep "http://ns.adobe.com/ImageReplacement/1.0/">
	<!ENTITY ns_sfw "http://ns.adobe.com/SaveForWeb/1.0/">
	<!ENTITY ns_custom "http://ns.adobe.com/GenericCustomNamespace/1.0/">
	<!ENTITY ns_adobe_xpath "http://ns.adobe.com/XPath/1.0/">
]>
<svg version="1.2" baseProfile="tiny" id="Layer_1" xmlns:x="&ns_extend;" xmlns:i="&ns_ai;" xmlns:graph="&ns_graphs;"
	 xmlns="http://www.w3.org/2000/svg" xmlns:xlink="http://www.w3.org/1999/xlink" x="0px" y="0px" width="64px" height="64px"
	 viewBox="0 0 64 64" xml:space="preserve">
<metadata>
	<sfw  xmlns="&ns_sfw;">
		<slices></slices>
		<sliceSourceBounds  width="56.25" height="60" x="3.875" y="-62" bottomLeftOrigin="true"></sliceSourceBounds>
	</sfw>
</metadata>
<g>
	<path fill="#FFFFFF" d="M45.125,54.5h-3.75v-30h-7.5v30h-3.75v-30h-7.5v30h-3.75v-30h-7.5v35.625c0,1.031,0.844,1.875,1.875,1.875
		h37.5c1.031,0,1.875-0.844,1.875-1.875V24.5h-7.5V54.5z"/>
	<path fill="#FFFFFF" d="M56.375,9.5h-15V3.875C41.375,2.846,40.531,2,39.5,2h-15c-1.031,0-1.875,0.846-1.875,1.875V9.5h-15
		c-2.062,0-3.75,1.688-3.75,3.75V17c0,2.062,1.688,3.75,3.75,3.75h48.75c2.062,0,3.75-1.688,3.75-3.75v-3.75
		C60.125,11.188,58.437,9.5,56.375,9.5z M26.375,9.5V5.75h11.25V9.5H26.375z"/>
</g>
</svg>
