<?xml version="1.0" encoding="utf-8"?>
<!-- Generator: Adobe Illustrator 17.1.0, SVG Export Plug-In . SVG Version: 6.00 Build 0)  -->
<!DOCTYPE svg PUBLIC "-//W3C//DTD SVG 1.1//EN" "http://www.w3.org/Graphics/SVG/1.1/DTD/svg11.dtd">
<svg version="1.1" id="Layer_1" xmlns="http://www.w3.org/2000/svg" xmlns:xlink="http://www.w3.org/1999/xlink" x="0px" y="0px"
	 viewBox="0 0 64 64" enable-background="new 0 0 64 64" xml:space="preserve">
<g>
	<circle fill="#FFFFFF" cx="48.8" cy="61.2" r="0.8"/>
	<circle fill="#FFFFFF" cx="45.5" cy="61.2" r="0.8"/>
	<circle fill="#FFFFFF" cx="10.5" cy="61.2" r="0.8"/>
	<circle fill="#FFFFFF" cx="7.2" cy="61.2" r="0.8"/>
	<path fill="#FFFFFF" d="M3,49.5c0,0.5,0.4,0.8,0.8,0.8H28v10H13.8c-0.5,0-0.8,0.4-0.8,0.8s0.4,0.8,0.8,0.8h28.3
		c0.5,0,0.8-0.4,0.8-0.8s-0.4-0.8-0.8-0.8H29.7v-10h22.5c0.5,0,0.8-0.4,0.8-0.8V37H3V49.5z M45.5,40.3c1.4,0,2.5,1.1,2.5,2.5
		s-1.1,2.5-2.5,2.5S43,44.2,43,42.8C43,41.5,44.1,40.3,45.5,40.3z M38.8,40.3c1.4,0,2.5,1.1,2.5,2.5s-1.1,2.5-2.5,2.5
		s-2.5-1.1-2.5-2.5C36.3,41.5,37.5,40.3,38.8,40.3z M32.2,40.3c1.4,0,2.5,1.1,2.5,2.5s-1.1,2.5-2.5,2.5c-1.4,0-2.5-1.1-2.5-2.5
		C29.7,41.5,30.8,40.3,32.2,40.3z M10.5,38.7c2.3,0,4.2,1.9,4.2,4.2S12.8,47,10.5,47s-4.2-1.9-4.2-4.2S8.2,38.7,10.5,38.7z"/>
	<path fill="#FFFFFF" d="M52.2,22H3.8C3.4,22,3,22.4,3,22.8v12.5h50V22.8C53,22.4,52.6,22,52.2,22z M10.5,33.7
		c-2.3,0-4.2-1.9-4.2-4.2s1.9-4.2,4.2-4.2s4.2,1.9,4.2,4.2S12.8,33.7,10.5,33.7z M32.2,32c-1.4,0-2.5-1.1-2.5-2.5s1.1-2.5,2.5-2.5
		c1.4,0,2.5,1.1,2.5,2.5S33.5,32,32.2,32z M38.8,32c-1.4,0-2.5-1.1-2.5-2.5s1.1-2.5,2.5-2.5s2.5,1.1,2.5,2.5S40.2,32,38.8,32z
		 M45.5,32c-1.4,0-2.5-1.1-2.5-2.5s1.1-2.5,2.5-2.5s2.5,1.1,2.5,2.5S46.9,32,45.5,32z"/>
</g>
<g>
	<circle fill="#FFFFFF" cx="28" cy="24" r="3.1"/>
	<path fill="#FFFFFF" d="M22.1,16.2l1.2,1.7c1.4-1,3-1.5,4.7-1.5c1.7,0,3.3,0.5,4.7,1.5l1.2-1.7c-1.7-1.2-3.8-1.9-5.9-1.9
		C25.9,14.3,23.8,14.9,22.1,16.2z"/>
	<path fill="#FFFFFF" d="M18.5,11.1l1.2,1.7c2.4-1.7,5.3-2.6,8.3-2.6s5.8,0.9,8.3,2.6l1.2-1.7c-2.8-2-6-3-9.5-3
		C24.6,8.1,21.3,9.2,18.5,11.1z"/>
	<path fill="#FFFFFF" d="M28,2c-4.7,0-9.2,1.4-13,4.1l1.2,1.7C19.7,5.3,23.7,4,28,4s8.3,1.3,11.8,3.8L41,6.1C37.2,3.4,32.7,2,28,2z"
		/>
</g>
<g>
	<path fill="#FFFFFF" d="M57,33.8c0,1.2-0.9,2.2-2,2.4V41h6.2c0.5,0,0.8,0,0.8-0.5V28h-7v3.4C56.1,31.6,57,32.6,57,33.8z"/>
	<path fill="#FFFFFF" d="M19.5,16.3c2.1,0,3.9,1.6,4.1,3.7h15.1c0.2-1.1,1.2-2,2.4-2s2.2,0.9,2.4,2h1.8c0.2-1.1,1.2-2,2.4-2
		s2.2,0.9,2.4,2h1.8c0.2-1.1,1.2-2,2.4-2c1.4,0,2.5,1.1,2.5,2.5c0,1.2-0.9,2.2-2,2.4V26h7V13.8c0-0.5-0.4-0.8-0.8-0.8H12.8
		c-0.5,0-0.8,0.4-0.8,0.8V20h3.4C15.6,17.9,17.4,16.3,19.5,16.3z"/>
</g>
</svg>
