<?xml version="1.0" encoding="utf-8"?>
<!-- Generator: Adobe Illustrator 17.1.0, SVG Export Plug-In . SVG Version: 6.00 Build 0)  -->
<!DOCTYPE svg PUBLIC "-//W3C//DTD SVG 1.1//EN" "http://www.w3.org/Graphics/SVG/1.1/DTD/svg11.dtd">
<svg version="1.1" id="Layer_1" xmlns="http://www.w3.org/2000/svg" xmlns:xlink="http://www.w3.org/1999/xlink" x="0px" y="0px"
	 viewBox="0 0 64 64" enable-background="new 0 0 64 64" xml:space="preserve">
<g>
	<circle fill="#FFFFFF" cx="52.8" cy="61.2" r="0.8"/>
	<circle fill="#FFFFFF" cx="49.5" cy="61.2" r="0.8"/>
	<circle fill="#FFFFFF" cx="14.5" cy="61.2" r="0.8"/>
	<circle fill="#FFFFFF" cx="11.2" cy="61.2" r="0.8"/>
	<path fill="#FFFFFF" d="M7,49.5c0,0.5,0.4,0.8,0.8,0.8H32v10H17.8c-0.5,0-0.8,0.4-0.8,0.8s0.4,0.8,0.8,0.8h28.3
		c0.5,0,0.8-0.4,0.8-0.8s-0.4-0.8-0.8-0.8H33.7v-10h22.5c0.5,0,0.8-0.4,0.8-0.8V37H7V49.5z M49.5,40.3c1.4,0,2.5,1.1,2.5,2.5
		c0,1.4-1.1,2.5-2.5,2.5S47,44.2,47,42.8C47,41.5,48.1,40.3,49.5,40.3z M42.8,40.3c1.4,0,2.5,1.1,2.5,2.5c0,1.4-1.1,2.5-2.5,2.5
		c-1.4,0-2.5-1.1-2.5-2.5C40.3,41.5,41.5,40.3,42.8,40.3z M36.2,40.3c1.4,0,2.5,1.1,2.5,2.5c0,1.4-1.1,2.5-2.5,2.5
		c-1.4,0-2.5-1.1-2.5-2.5C33.7,41.5,34.8,40.3,36.2,40.3z M14.5,38.7c2.3,0,4.2,1.9,4.2,4.2S16.8,47,14.5,47s-4.2-1.9-4.2-4.2
		S12.2,38.7,14.5,38.7z"/>
	<path fill="#FFFFFF" d="M56.2,22H7.8C7.4,22,7,22.4,7,22.8v12.5h50V22.8C57,22.4,56.6,22,56.2,22z M14.5,33.7
		c-2.3,0-4.2-1.9-4.2-4.2s1.9-4.2,4.2-4.2s4.2,1.9,4.2,4.2S16.8,33.7,14.5,33.7z M36.2,32c-1.4,0-2.5-1.1-2.5-2.5s1.1-2.5,2.5-2.5
		c1.4,0,2.5,1.1,2.5,2.5S37.5,32,36.2,32z M42.8,32c-1.4,0-2.5-1.1-2.5-2.5s1.1-2.5,2.5-2.5c1.4,0,2.5,1.1,2.5,2.5S44.2,32,42.8,32z
		 M49.5,32c-1.4,0-2.5-1.1-2.5-2.5s1.1-2.5,2.5-2.5s2.5,1.1,2.5,2.5S50.9,32,49.5,32z"/>
</g>
<g>
	<circle fill="#FFFFFF" cx="32" cy="24" r="3.1"/>
	<path fill="#FFFFFF" d="M26.1,16.2l1.2,1.7c1.4-1,3-1.5,4.7-1.5c1.7,0,3.3,0.5,4.7,1.5l1.2-1.7c-1.7-1.2-3.8-1.9-5.9-1.9
		C29.9,14.3,27.8,14.9,26.1,16.2z"/>
	<path fill="#FFFFFF" d="M22.5,11.1l1.2,1.7c2.4-1.7,5.3-2.6,8.3-2.6c3,0,5.8,0.9,8.3,2.6l1.2-1.7c-2.8-2-6-3-9.5-3
		C28.6,8.1,25.3,9.2,22.5,11.1z"/>
	<path fill="#FFFFFF" d="M32,2c-4.7,0-9.2,1.4-13,4.1l1.2,1.7C23.7,5.3,27.7,4,32,4c4.3,0,8.3,1.3,11.8,3.8L45,6.1
		C41.2,3.4,36.7,2,32,2z"/>
</g>
</svg>
