<?xml version="1.0" encoding="utf-8"?>
<!-- Generator: Adobe Illustrator 17.1.0, SVG Export Plug-In . SVG Version: 6.00 Build 0)  -->
<!DOCTYPE svg PUBLIC "-//W3C//DTD SVG 1.1//EN" "http://www.w3.org/Graphics/SVG/1.1/DTD/svg11.dtd">
<svg version="1.1" id="Layer_1" xmlns="http://www.w3.org/2000/svg" xmlns:xlink="http://www.w3.org/1999/xlink" x="0px" y="0px"
	 viewBox="0 0 64 64" enable-background="new 0 0 64 64" xml:space="preserve">
<path fill="#FFFFFF" d="M57,33c-1.6,0-3.1,0.8-4,2l-6.7-3.2c0.4-1.2,0.7-2.5,0.7-3.8c0-2.7-1-5.1-2.6-7l9.8-9.8C55,11.7,56,12,57,12
	c2.8,0,5-2.2,5-5s-2.2-5-5-5s-5,2.2-5,5c0,1,0.3,2,0.8,2.8L43,19.6C41.1,18,38.7,17,36,17c-4.2,0-7.9,2.4-9.7,5.9l-14.4-5.9
	C12,16.6,12,16.3,12,16c0-2.8-2.2-5-5-5s-5,2.2-5,5s2.2,5,5,5c1.7,0,3.2-0.9,4.1-2.2l14.4,5.9c-0.3,1-0.5,2.1-0.5,3.3
	c0,2.7,1,5.1,2.6,7L9.8,52.8C9,52.3,8,52,7,52c-2.8,0-5,2.2-5,5s2.2,5,5,5s5-2.2,5-5c0-1-0.3-2-0.8-2.8L29,36.4
	c1.9,1.6,4.4,2.6,7,2.6v13.1c-2.3,0.5-4,2.5-4,4.9c0,2.8,2.2,5,5,5s5-2.2,5-5c0-2.4-1.7-4.4-4-4.9V38.8c3.2-0.6,5.9-2.5,7.4-5.2
	l6.7,3.2C52.1,37.2,52,37.6,52,38c0,2.8,2.2,5,5,5s5-2.2,5-5S59.8,33,57,33z"/>
</svg>
