<?xml version="1.0" encoding="utf-8"?>
<!-- Generator: Adobe Illustrator 17.0.0, SVG Export Plug-In . SVG Version: 6.00 Build 0)  -->
<!DOCTYPE svg PUBLIC "-//W3C//DTD SVG 1.1//EN" "http://www.w3.org/Graphics/SVG/1.1/DTD/svg11.dtd" [
	<!ENTITY ns_extend "http://ns.adobe.com/Extensibility/1.0/">
	<!ENTITY ns_ai "http://ns.adobe.com/AdobeIllustrator/10.0/">
	<!ENTITY ns_graphs "http://ns.adobe.com/Graphs/1.0/">
	<!ENTITY ns_vars "http://ns.adobe.com/Variables/1.0/">
	<!ENTITY ns_imrep "http://ns.adobe.com/ImageReplacement/1.0/">
	<!ENTITY ns_sfw "http://ns.adobe.com/SaveForWeb/1.0/">
	<!ENTITY ns_custom "http://ns.adobe.com/GenericCustomNamespace/1.0/">
	<!ENTITY ns_adobe_xpath "http://ns.adobe.com/XPath/1.0/">
]>
<svg version="1.1" id="Layer_1" xmlns:x="&ns_extend;" xmlns:i="&ns_ai;" xmlns:graph="&ns_graphs;"
	 xmlns="http://www.w3.org/2000/svg" xmlns:xlink="http://www.w3.org/1999/xlink" x="0px" y="0px" width="64px" height="64px"
	 viewBox="0 0 64 64" enable-background="new 0 0 64 64" xml:space="preserve">
<metadata>
	<sfw  xmlns="&ns_sfw;">
		<slices></slices>
		<sliceSourceBounds  width="60" height="60" x="2" y="-62" bottomLeftOrigin="true"></sliceSourceBounds>
	</sfw>
</metadata>
<g>
	<path fill="#FFFFFF" d="M32,2C15.438,2,2,15.438,2,32s13.438,30,30,30s30-13.438,30-30S48.562,2,32,2z M44.043,45.195l-0.211,0.945
		l-0.102-0.199c-1.328,1.078-1.312,4.137-3.117,4.898c-0.969,0.406-0.848-0.902-0.484-1.363c0.539-0.688-0.199-1.137,0.137-1.812
		l-0.062-0.035l-0.008,0.004v-0.008c-0.328-0.078-0.644-0.894-0.644-1.359c0.387-0.07,0.586-0.305,0.617-0.164l0.551-1.035
		c0.121,0.688-0.867,2.02-0.524,2.558l0.008,0.004l0.355-0.226c0,0.363,0.078,0.707,0.227,1.039
		c-0.418-1.648,1.258-1.699,2.016-2.676c0.289-0.379,0.758-1.422,1.125-1.578l0.133,0.941L44.043,45.195z M52.383,25.804
		c-0.641-1.016-1.047-2.64-1.976-3.414l0.07,0.852c-0.484-0.144-0.879-0.422-1.164-0.852c-0.047-0.195,0.496,0.266,0.195-0.32
		c-0.769,0.101-1.32-0.692-1.949-1.133c-1.105-0.145-2.308,0.789-3.437,0.129c-0.262-0.156-0.512-1.066-0.922-0.539l-0.766,0.184
		c-1.262-0.383-1.809-1.465-2.949-1.496c0.012,0.484,0.824,1.199,1.211,1.422c0.508,0.293,0.863,1.566,0.926,0.43
		c0.726,0.418,0.211,1.348,1.242,1.004c0.785,0.304,0.574-0.953,0.738-1.328l0.582,0.953c0.41,0.383,0.996,0.234,1.375,0.629
		c0.481,0.5,0.754,1.219,0.637,1.82c-0.449-0.035-0.094,0.539-0.375,0.98c-0.305,0.461-0.278,0.563-0.469,1.063
		c-0.531,0.133-1.16,0.375-1.062,1.07c-0.371,0.446-3.684,2.844-4.121,2.188c-0.539-0.812-0.672-1.941-1.11-2.801
		c-0.648-0.215-2-1.863-2.266-2.5c0.199-1.121-2.762-3.324-3.242-3.34c0.352,1.524,1.664,2.328,2.27,3.504
		c0.512,1.008,1.453,3.375,2.238,3.699c1.309-0.125,2.114,2.25,2.813,2.742c0.91,0.633,2.777-1.422,3.574-1.219
		c0.09,1.078,0.07,1.402-0.258,2.594c-0.664,2.438-1.785,3.492-3.227,5.469c-0.832,1.137-1.371,1.938-1.996,3.188
		c-0.488,0.988,0.942,3.055,0.551,3.606c0.211,1.613-0.184,2.558-1.578,3.363c-1.02,0.594-1.898,1.156-1.555,2.273
		c0.348,1.117-1.043,1.293-1.207,1.922c-0.426,1.039-1.019,1.594-1.734,1.984C32.961,53.961,32.484,54,32,54
		c-0.875,0-1.734-0.066-2.586-0.164c-1.133-1.414-2.305-2.914-3.516-4.328c-0.738-0.844-1.734-2.383-0.656-3.469
		c0.121-0.703-0.722-2.328-1.098-2.949c-0.629-1.051-3.531-3.324-2.398-4.543c0.156-0.805-0.551-1.606-0.551-2.238
		c-0.617-0.496-1.246,0.664-1.848-0.387c-0.641-1.125-1.805-0.816-2.77-0.125l-3.133,0.336c-2.039-1.82-2.688-4.676-1.98-7.125
		c0.289-1.016,0.324-2.82,1.133-3.5c0.266-1.054,1.484-2.094,2.133-2.961c0.344-0.465,0.906-0.508,1.309-0.984
		c0.605-0.711,0.898-1.555,1.68-2.184c0.789-0.625,2.48-1.691,1.043-1.918c0.57-0.836,1.48-1.75,1.816-2.754
		c0.492-0.394,1.414-0.23,1.969-0.504c0.476-0.977,0.672-0.946,0.492-1.57c0.098-0.398,1.363-0.703,1.633-0.805
		c0.5-0.195,0.945-0.656,1.398-0.992C27.961,10.304,29.945,10,32,10c10.922,0,19.984,8.008,21.688,18.453
		C53.188,27.492,52.746,26.375,52.383,25.804z"/>
	<path fill="#FFFFFF" d="M31.633,12.602l0.199-0.227c-0.703,0.258-0.246-0.508-0.906,0.258c0.172,0.582-0.594,0.969-0.262,1.586
		c0.684,0.578,1.367-0.313,2.039-0.422c-0.004,0.394,1.41,0.336,1.621,0.391c-0.379-0.094,0.129-0.078,0,0
		C35.609,13.39,31.68,12.629,31.633,12.602z"/>
	<path fill="#FFFFFF" d="M30.531,16.461c0.047-0.32-0.336-0.344-0.484-0.75c0.512-0.609-0.445-0.305,0.066-0.969h-0.777
		c-0.11,0.438,0.215,0.281-0.363,0.16c-0.192,0.472,0.449,0.793,0.363,1.23l-0.262-0.094c-0.082,0.316-0.023,0.242-0.031,0.742
		c-0.89-0.164-0.406-0.84-1.168-1.812c0.692-0.551-1.434-1.633-1.133-1.977c-1.5,0.402,1.192,1.973,0.778,2.332
		c-0.696-0.394-0.196,0.156-0.617,0.625c-0.613,0.699-0.559,0.934-1.496,0.574c-0.039-0.777,1.762-0.086,0.937-1.508
		c-0.41-0.703-0.804-1.539-1.582-1.024c-0.734,0.484-2.058,0.766-2.629,1.82l-2.692,2.336c0.914,0.742,4.512-2.195,5.414-1.332
		c-0.059,0.609-0.762,1.07-0.778,1.684l0.648,0.422c1.192-0.258,0.871,0.563,1.75,0.778c1.469,0.363,0.348,0.09,1.274-0.828
		c0.305-0.293,1.926-0.262,2,0.246c-0.047-0.316,0.68-0.125,0,0c0.723-0.133,1.418,0.594,1.953,0.054
		c0.383-0.375,0.695-0.3,0.98-0.09c1.308,0.945,0.867-2.738,0.902-2.914C33.133,16.461,30.512,16.734,30.531,16.461z M24.762,15.91
		l-0.457,0.094c0.121-0.379,0.672-1.731,1.008-1.785C25.289,14.707,24.844,15.406,24.762,15.91z"/>
	<path fill="#FFFFFF" d="M36.367,12.531l0.394-0.391c-0.222-0.976-1.234-0.187-1.234,0.43c0.379,0.457,1.914,1.258,2.012,1.684
		c-0.356,0.136,0.09,1.211,0.648,1.168c0.394,0.336,0.84,0.399,1.328,0.196C39.387,14.707,37.109,12.922,36.367,12.531z"/>
	<path fill="#FFFFFF" d="M39.32,12.664c-0.364-0.082-0.75-0.891-1.133-1.008l-0.063,0.328C38.266,12.219,38.898,13.113,39.32,12.664
		z"/>
	<polygon fill="#FFFFFF" points="22.875,13.961 22.547,14.203 22.52,14.254 	"/>
</g>
</svg>
