<?xml version="1.0" encoding="utf-8"?>
<!-- Generator: Adobe Illustrator 17.0.0, SVG Export Plug-In . SVG Version: 6.00 Build 0)  -->
<!DOCTYPE svg PUBLIC "-//W3C//DTD SVG 1.1//EN" "http://www.w3.org/Graphics/SVG/1.1/DTD/svg11.dtd" [
	<!ENTITY ns_extend "http://ns.adobe.com/Extensibility/1.0/">
	<!ENTITY ns_ai "http://ns.adobe.com/AdobeIllustrator/10.0/">
	<!ENTITY ns_graphs "http://ns.adobe.com/Graphs/1.0/">
	<!ENTITY ns_vars "http://ns.adobe.com/Variables/1.0/">
	<!ENTITY ns_imrep "http://ns.adobe.com/ImageReplacement/1.0/">
	<!ENTITY ns_sfw "http://ns.adobe.com/SaveForWeb/1.0/">
	<!ENTITY ns_custom "http://ns.adobe.com/GenericCustomNamespace/1.0/">
	<!ENTITY ns_adobe_xpath "http://ns.adobe.com/XPath/1.0/">
]>
<svg version="1.1" id="Layer_1" xmlns:x="&ns_extend;" xmlns:i="&ns_ai;" xmlns:graph="&ns_graphs;"
	 xmlns="http://www.w3.org/2000/svg" xmlns:xlink="http://www.w3.org/1999/xlink" x="0px" y="0px" width="64px" height="64px"
	 viewBox="0 0 64 64" enable-background="new 0 0 64 64" xml:space="preserve">
<metadata>
	<sfw  xmlns="&ns_sfw;">
		<slices></slices>
		<sliceSourceBounds  width="52.5" height="60" x="5.75" y="-62" bottomLeftOrigin="true"></sliceSourceBounds>
	</sfw>
</metadata>
<g>
	<polygon fill="#FFFFFF" points="28.25,39.5 35.75,39.5 35.75,17 43.25,17 32,2 20.75,17 28.25,17 	"/>
	<path fill="#FFFFFF" d="M49.424,16.15L44.4,21.797c3.867,3.435,6.35,8.386,6.35,13.953c0,10.342-8.408,18.75-18.75,18.75
		c-10.335,0-18.75-8.408-18.75-18.75c0-5.566,2.483-10.518,6.35-13.953l-5.017-5.647C9.178,20.962,5.75,27.95,5.75,35.75
		C5.75,50.244,17.505,62,32,62c14.502,0,26.25-11.756,26.25-26.25C58.25,27.95,54.83,20.962,49.424,16.15z"/>
</g>
</svg>
