<?xml version="1.0" encoding="utf-8"?>
<!-- Generator: Adobe Illustrator 17.0.0, SVG Export Plug-In . SVG Version: 6.00 Build 0)  -->
<!DOCTYPE svg PUBLIC "-//W3C//DTD SVG 1.1//EN" "http://www.w3.org/Graphics/SVG/1.1/DTD/svg11.dtd" [
	<!ENTITY ns_extend "http://ns.adobe.com/Extensibility/1.0/">
	<!ENTITY ns_ai "http://ns.adobe.com/AdobeIllustrator/10.0/">
	<!ENTITY ns_graphs "http://ns.adobe.com/Graphs/1.0/">
	<!ENTITY ns_vars "http://ns.adobe.com/Variables/1.0/">
	<!ENTITY ns_imrep "http://ns.adobe.com/ImageReplacement/1.0/">
	<!ENTITY ns_sfw "http://ns.adobe.com/SaveForWeb/1.0/">
	<!ENTITY ns_custom "http://ns.adobe.com/GenericCustomNamespace/1.0/">
	<!ENTITY ns_adobe_xpath "http://ns.adobe.com/XPath/1.0/">
	<!ENTITY st0 "fill:#FFFFFF;">
]>
<svg version="1.1" id="Layer_1" xmlns:x="&ns_extend;" xmlns:i="&ns_ai;" xmlns:graph="&ns_graphs;"
	 xmlns="http://www.w3.org/2000/svg" xmlns:xlink="http://www.w3.org/1999/xlink" x="0px" y="0px" width="64px" height="64px"
	 viewBox="0 0 64 64" style="enable-background:new 0 0 64 64;" xml:space="preserve">
<metadata>
	<sfw  xmlns="&ns_sfw;">
		<slices></slices>
		<sliceSourceBounds  height="59.992" width="60" y="-61.996" x="2" bottomLeftOrigin="true"></sliceSourceBounds>
	</sfw>
</metadata>
<g>
	<path style="&st0;" d="M33.295,20.587c2.079,0,3.785-1.706,3.785-3.831s-1.706-3.785-3.785-3.785c-2.125,0-3.831,1.66-3.831,3.785
		S31.17,20.587,33.295,20.587z"/>
	<path style="&st0;" d="M39.205,42.103H36.25V24.235c0-0.51-0.091-0.647-0.647-0.647h-8.218c-0.556,0-0.647,0.137-0.647,0.647v3.001
		c0,0.51,0.091,0.647,0.647,0.647h3.001v14.219H27.43c-0.556,0-0.647,0.137-0.647,0.647v3.001c0,0.51,0.091,0.647,0.647,0.647
		h11.775c0.556,0,0.647-0.137,0.647-0.647V42.75C39.852,42.24,39.761,42.103,39.205,42.103z"/>
	<path style="&st0;" d="M32,2.004c-16.565,0-30,13.427-30,29.992c0,16.573,13.435,30,30,30c16.565,0,30-13.427,30-30
		C62,15.431,48.565,2.004,32,2.004z M32,57.609c-14.12,0-25.613-11.485-25.613-25.606C6.387,17.876,17.88,6.391,32,6.391
		s25.613,11.485,25.613,25.613C57.613,46.124,46.121,57.609,32,57.609z"/>
</g>
</svg>
