<?xml version="1.0" encoding="utf-8"?>
<!-- Generator: Adobe Illustrator 17.0.0, SVG Export Plug-In . SVG Version: 6.00 Build 0)  -->
<!DOCTYPE svg PUBLIC "-//W3C//DTD SVG 1.1//EN" "http://www.w3.org/Graphics/SVG/1.1/DTD/svg11.dtd" [
	<!ENTITY st0 "fill:#FFFFFF;">
]>
<svg version="1.1" id="Layer_1" xmlns="http://www.w3.org/2000/svg" xmlns:xlink="http://www.w3.org/1999/xlink" x="0px" y="0px"
	 width="64px" height="64px" viewBox="0 0 64 64" style="enable-background:new 0 0 64 64;" xml:space="preserve">
<path style="&st0;" d="M57.898,30C56.926,17.238,46.758,7.074,34,6.102V2h-4v4.102C17.242,7.074,7.074,17.238,6.102,30H2v4h4.102
	C7.074,46.762,17.242,56.926,30,57.898V62h4v-4.102C46.758,56.926,56.926,46.762,57.898,34H62v-4H57.898z M53.898,34
	C52.941,44.535,44.531,52.943,34,53.898V42h-4v11.898C19.461,52.943,11.055,44.535,10.102,34H22v-4H10.102
	C11.055,19.465,19.461,11.057,30,10.102V22h4V10.102C44.531,11.057,52.941,19.465,53.898,30H42v4H53.898z"/>
</svg>
