<?xml version="1.0" encoding="utf-8"?>
<!-- Generator: Adobe Illustrator 17.0.0, SVG Export Plug-In . SVG Version: 6.00 Build 0)  -->
<!DOCTYPE svg PUBLIC "-//W3C//DTD SVG 1.1//EN" "http://www.w3.org/Graphics/SVG/1.1/DTD/svg11.dtd" [
	<!ENTITY ns_extend "http://ns.adobe.com/Extensibility/1.0/">
	<!ENTITY ns_ai "http://ns.adobe.com/AdobeIllustrator/10.0/">
	<!ENTITY ns_graphs "http://ns.adobe.com/Graphs/1.0/">
	<!ENTITY ns_vars "http://ns.adobe.com/Variables/1.0/">
	<!ENTITY ns_imrep "http://ns.adobe.com/ImageReplacement/1.0/">
	<!ENTITY ns_sfw "http://ns.adobe.com/SaveForWeb/1.0/">
	<!ENTITY ns_custom "http://ns.adobe.com/GenericCustomNamespace/1.0/">
	<!ENTITY ns_adobe_xpath "http://ns.adobe.com/XPath/1.0/">
]>
<svg version="1.1" id="Layer_1" xmlns:x="&ns_extend;" xmlns:i="&ns_ai;" xmlns:graph="&ns_graphs;"
	 xmlns="http://www.w3.org/2000/svg" xmlns:xlink="http://www.w3.org/1999/xlink" x="0px" y="0px" width="64px" height="64px"
	 viewBox="0 0 64 64" enable-background="new 0 0 64 64" xml:space="preserve">
<metadata>
	<sfw  xmlns="&ns_sfw;">
		<slices></slices>
		<sliceSourceBounds  width="60" height="60" x="2" y="-62" bottomLeftOrigin="true"></sliceSourceBounds>
	</sfw>
</metadata>
<g>
	<path fill="#FFFFFF" d="M40.954,37.365h-5.746c-0.341-1.102-0.824-2.142-1.41-3.109l3.812-3.82c0.901-0.89,0.901-2.344,0-3.241
		l-1.615-1.611c-0.901-0.894-2.351-0.894-3.244,0l-3.874,3.867c-1.047-0.597-2.182-1.054-3.391-1.369V23.05
		c0-1.267-1.018-2.292-2.289-2.292h-2.289c-1.263,0-2.292,1.025-2.292,2.292v5.032c-1.315,0.333-2.549,0.861-3.684,1.549
		l-3.244-3.241c-0.894-0.894-2.351-0.894-3.241,0l-1.626,1.618c-0.89,0.89-0.883,2.347,0.007,3.245l3.303,3.303
		c-0.7,1.216-1.22,2.549-1.52,3.955H4.296C3.029,38.511,2,39.537,2,40.804v2.292c0,1.26,1.029,2.285,2.296,2.285h4.607
		c0.414,1.384,1.047,2.658,1.853,3.816L7.64,52.31c-0.897,0.901-0.897,2.355-0.007,3.245l1.619,1.618
		c0.897,0.894,2.355,0.894,3.248,0l3.479-3.479c1.172,0.579,2.446,1.003,3.783,1.223v4.79c0,1.267,1.022,2.292,2.289,2.292h2.292
		c1.263,0,2.292-1.025,2.292-2.292v-5.384c1.154-0.41,2.249-0.956,3.237-1.651l3.692,3.695c0.894,0.894,2.344,0.894,3.241,0
		l1.619-1.622c0.897-0.894,0.897-2.344-0.007-3.241l-4.039-4.05c0.494-1.007,0.879-2.08,1.121-3.215h5.457
		c1.267,0,2.292-1.018,2.296-2.293v-2.289C43.246,38.394,42.221,37.365,40.954,37.365z M22.054,47.102
		c-3.16,0-5.724-2.556-5.724-5.727c0-3.164,2.563-5.72,5.724-5.72c3.168,0,5.731,2.556,5.731,5.72
		C27.785,44.546,25.221,47.102,22.054,47.102z"/>
	<path fill="#FFFFFF" d="M60.539,12.569H56.88c-0.216-0.696-0.524-1.362-0.894-1.978l2.424-2.432c0.571-0.564,0.571-1.487,0-2.058
		l-1.029-1.026c-0.571-0.571-1.494-0.571-2.062,0l-2.468,2.461c-0.666-0.381-1.388-0.674-2.157-0.872V3.461
		C50.695,2.659,50.043,2,49.238,2H47.78c-0.802,0-1.458,0.659-1.458,1.461v3.204c-0.835,0.213-1.622,0.546-2.344,0.982l-2.065-2.058
		c-0.564-0.571-1.494-0.571-2.062,0l-1.032,1.026c-0.568,0.571-0.561,1.494,0.003,2.066l2.102,2.102
		c-0.447,0.776-0.777,1.622-0.967,2.52h-2.747c-0.806,0-1.461,0.652-1.461,1.457v1.458c0,0.806,0.655,1.458,1.461,1.458h2.93
		c0.267,0.879,0.666,1.688,1.179,2.424l-1.981,1.985c-0.567,0.571-0.567,1.494-0.003,2.066l1.029,1.025
		c0.575,0.571,1.498,0.571,2.065,0l2.216-2.212c0.747,0.366,1.552,0.638,2.409,0.777v3.047c0,0.806,0.652,1.461,1.458,1.465h1.458
		c0.802-0.004,1.458-0.659,1.458-1.465v-3.42c0.732-0.264,1.428-0.608,2.058-1.055l2.351,2.351c0.568,0.571,1.487,0.571,2.062,0
		l1.029-1.033c0.571-0.564,0.571-1.487-0.004-2.062l-2.574-2.574c0.318-0.645,0.564-1.326,0.718-2.044h3.471
		c0.806,0,1.458-0.652,1.461-1.461V14.03C61.996,13.228,61.344,12.569,60.539,12.569z M48.512,18.769
		c-2.014,0-3.647-1.63-3.647-3.644s1.633-3.644,3.647-3.644c2.014,0,3.648,1.63,3.648,3.644S50.526,18.769,48.512,18.769z"/>
</g>
</svg>
