<?xml version="1.0" encoding="utf-8"?>
<!-- Generator: Adobe Illustrator 17.1.0, SVG Export Plug-In . SVG Version: 6.00 Build 0)  -->
<!DOCTYPE svg PUBLIC "-//W3C//DTD SVG 1.1//EN" "http://www.w3.org/Graphics/SVG/1.1/DTD/svg11.dtd">
<svg version="1.1" id="Layer_1" xmlns="http://www.w3.org/2000/svg" xmlns:xlink="http://www.w3.org/1999/xlink" x="0px" y="0px"
	 viewBox="0 0 64 64" enable-background="new 0 0 64 64" xml:space="preserve">
<g>
	<rect x="2" y="12.7" fill="#FFFFFF" width="8" height="33.3"/>
	<path fill="#FFFFFF" d="M46,2H2v8.9h44V2z M7.9,8.7C7.1,8.7,6.4,8,6.4,7.2s0.7-1.5,1.5-1.5s1.5,0.7,1.5,1.5S8.7,8.7,7.9,8.7z
		 M12.3,8.7c-0.8,0-1.5-0.7-1.5-1.5s0.7-1.5,1.5-1.5c0.8,0,1.5,0.7,1.5,1.5S13.1,8.7,12.3,8.7z M16.7,8.7c-0.8,0-1.5-0.7-1.5-1.5
		s0.7-1.5,1.5-1.5c0.8,0,1.5,0.7,1.5,1.5S17.5,8.7,16.7,8.7z"/>
</g>
<g>
	<rect x="14" y="25.9" fill="#FFFFFF" width="14.4" height="36.3"/>
	<rect x="30" y="37.2" fill="#FFFFFF" width="32" height="25"/>
	<path fill="#FFFFFF" d="M62,14.2H14v9.7h48V14.2z M20.4,21.5c-0.9,0-1.6-0.7-1.6-1.6c0-0.9,0.7-1.6,1.6-1.6c0.9,0,1.6,0.7,1.6,1.6
		C22,20.7,21.3,21.5,20.4,21.5z M25.2,21.5c-0.9,0-1.6-0.7-1.6-1.6c0-0.9,0.7-1.6,1.6-1.6c0.9,0,1.6,0.7,1.6,1.6
		C26.8,20.7,26.1,21.5,25.2,21.5z M30,21.5c-0.9,0-1.6-0.7-1.6-1.6c0-0.9,0.7-1.6,1.6-1.6s1.6,0.7,1.6,1.6
		C31.6,20.7,30.9,21.5,30,21.5z"/>
	<rect x="30" y="25.9" fill="#FFFFFF" width="32" height="8.9"/>
</g>
</svg>
