<?xml version="1.0" encoding="utf-8"?>
<!-- Generator: Adobe Illustrator 17.1.0, SVG Export Plug-In . SVG Version: 6.00 Build 0)  -->
<!DOCTYPE svg PUBLIC "-//W3C//DTD SVG 1.1//EN" "http://www.w3.org/Graphics/SVG/1.1/DTD/svg11.dtd">
<svg version="1.1" id="Layer_1" xmlns="http://www.w3.org/2000/svg" xmlns:xlink="http://www.w3.org/1999/xlink" x="0px" y="0px"
	 viewBox="0 0 64 64" enable-background="new 0 0 64 64" xml:space="preserve">
<g>
	<rect x="2" y="16.5" fill="#FFFFFF" width="18" height="45"/>
	<rect x="22" y="30.5" fill="#FFFFFF" width="40" height="31"/>
	<path fill="#FFFFFF" d="M62,2H2v12h60V2z M10,11c-1.1,0-2-0.9-2-2s0.9-2,2-2s2,0.9,2,2S11.1,11,10,11z M16,11c-1.1,0-2-0.9-2-2
		s0.9-2,2-2s2,0.9,2,2S17.1,11,16,11z M22,11c-1.1,0-2-0.9-2-2s0.9-2,2-2s2,0.9,2,2S23.1,11,22,11z"/>
	<rect x="22" y="16.5" fill="#FFFFFF" width="40" height="11"/>
</g>
</svg>
