<?xml version="1.0" encoding="utf-8"?>
<!-- Generator: Adobe Illustrator 17.0.0, SVG Export Plug-In . SVG Version: 6.00 Build 0)  -->
<!DOCTYPE svg PUBLIC "-//W3C//DTD SVG 1.1//EN" "http://www.w3.org/Graphics/SVG/1.1/DTD/svg11.dtd" [
	<!ENTITY ns_extend "http://ns.adobe.com/Extensibility/1.0/">
	<!ENTITY ns_ai "http://ns.adobe.com/AdobeIllustrator/10.0/">
	<!ENTITY ns_graphs "http://ns.adobe.com/Graphs/1.0/">
	<!ENTITY ns_vars "http://ns.adobe.com/Variables/1.0/">
	<!ENTITY ns_imrep "http://ns.adobe.com/ImageReplacement/1.0/">
	<!ENTITY ns_sfw "http://ns.adobe.com/SaveForWeb/1.0/">
	<!ENTITY ns_custom "http://ns.adobe.com/GenericCustomNamespace/1.0/">
	<!ENTITY ns_adobe_xpath "http://ns.adobe.com/XPath/1.0/">
]>
<svg version="1.1" id="Layer_1" xmlns:x="&ns_extend;" xmlns:i="&ns_ai;" xmlns:graph="&ns_graphs;"
	 xmlns="http://www.w3.org/2000/svg" xmlns:xlink="http://www.w3.org/1999/xlink" x="0px" y="0px" width="26px" height="41px"
	 viewBox="-0.313 -0.188 26 41" enable-background="new -0.313 -0.188 26 41" xml:space="preserve">
<metadata>
	<sfw  xmlns="&ns_sfw;">
		<slices></slices>
		<sliceSourceBounds  height="40.227" width="25.1" x="18.95" y="12.565" bottomLeftOrigin="true"></sliceSourceBounds>
	</sfw>
</metadata>
<g>
	
		<linearGradient id="SVGID_1_" gradientUnits="userSpaceOnUse" x1="315.5335" y1="-360.6195" x2="315.5335" y2="-323.0535" gradientTransform="matrix(1 0 0 -1 -302.846 -322.662)">
		<stop  offset="0" style="stop-color:#126FC6"/>
		<stop  offset="1" style="stop-color:#4C9CD1"/>
	</linearGradient>
	
		<linearGradient id="SVGID_2_" gradientUnits="userSpaceOnUse" x1="223.9535" y1="-342.1075" x2="223.9535" y2="-323.0545" gradientTransform="matrix(1 0 0 -1 -211.266 -322.663)">
		<stop  offset="0" style="stop-color:#2E6C97"/>
		<stop  offset="1" style="stop-color:#3883B7"/>
	</linearGradient>
	<path fill="url(#SVGID_1_)" stroke="url(#SVGID_2_)" stroke-width="1.1" stroke-linecap="round" d="M12.732,0.57
		c-6.573,0-12.044,5.691-12.044,11.866c0,2.778,1.564,6.308,2.694,8.746l9.306,17.872l9.262-17.872
		c1.13-2.438,2.738-5.791,2.738-8.746C24.688,6.262,19.305,0.571,12.732,0.57L12.732,0.57z M12.732,7.725
		c2.584,0.017,4.679,2.122,4.679,4.71s-2.095,4.663-4.679,4.679c-2.584-0.017-4.679-2.09-4.679-4.679
		C8.053,9.847,10.148,7.742,12.732,7.725z"/>
	<path fill="none" stroke="#FFFFFF" stroke-width="1.1" stroke-linecap="round" stroke-opacity="0.122" d="M12.719,1.677
		c-5.944,0-10.938,5.219-10.938,10.75c0,2.359,1.443,5.832,2.563,8.25l0.031,0.031l8.313,15.969l8.25-15.969l0.031-0.031
		c1.135-2.448,2.625-5.706,2.625-8.25C23.594,6.889,18.663,1.677,12.719,1.677z M12.719,6.646c3.168,0.021,5.781,2.601,5.781,5.781
		s-2.613,5.761-5.781,5.781c-3.168-0.02-5.75-2.61-5.75-5.781C6.969,9.255,9.551,6.667,12.719,6.646z"/>
</g>
</svg>
