<?xml version="1.0" encoding="utf-8"?>
<!-- Generator: Adobe Illustrator 17.0.0, SVG Export Plug-In . SVG Version: 6.00 Build 0)  -->
<!DOCTYPE svg PUBLIC "-//W3C//DTD SVG 1.1//EN" "http://www.w3.org/Graphics/SVG/1.1/DTD/svg11.dtd" [
	<!ENTITY ns_extend "http://ns.adobe.com/Extensibility/1.0/">
	<!ENTITY ns_ai "http://ns.adobe.com/AdobeIllustrator/10.0/">
	<!ENTITY ns_graphs "http://ns.adobe.com/Graphs/1.0/">
	<!ENTITY ns_vars "http://ns.adobe.com/Variables/1.0/">
	<!ENTITY ns_imrep "http://ns.adobe.com/ImageReplacement/1.0/">
	<!ENTITY ns_sfw "http://ns.adobe.com/SaveForWeb/1.0/">
	<!ENTITY ns_custom "http://ns.adobe.com/GenericCustomNamespace/1.0/">
	<!ENTITY ns_adobe_xpath "http://ns.adobe.com/XPath/1.0/">
]>
<svg version="1.1" id="Layer_1" xmlns:x="&ns_extend;" xmlns:i="&ns_ai;" xmlns:graph="&ns_graphs;"
	 xmlns="http://www.w3.org/2000/svg" xmlns:xlink="http://www.w3.org/1999/xlink" x="0px" y="0px" width="64px" height="64px"
	 viewBox="0 0 64 64" enable-background="new 0 0 64 64" xml:space="preserve">
<metadata>
	<sfw  xmlns="&ns_sfw;">
		<slices></slices>
		<sliceSourceBounds  width="52" height="52" x="6" y="-58" bottomLeftOrigin="true"></sliceSourceBounds>
	</sfw>
</metadata>
<path fill="none" d="M42.799,23.01c0,5.197-0.057,11.397-0.131,14.777c0.087-1.12,0.131-2.468,0.131-4.056V23.01z"/>
<path fill="none" d="M10.484,40.58c0,0,0,0,0.724,2.221c-0.352-1.08-0.617-2.416-0.798-3.997
	C10.434,39.45,10.458,40.047,10.484,40.58z"/>
<path fill="none" d="M53.579,40.589c0.021-0.563,0.042-1.19,0.062-1.865c-0.15,1.584-0.369,2.85-0.661,3.786
	C53.579,40.589,53.579,40.589,53.579,40.589z"/>
<path fill="none" d="M21.312,37.5c-0.063-3.471-0.111-9.64-0.111-14.714v10.497C21.201,35.003,21.239,36.404,21.312,37.5z"/>
<path fill="#FFFFFF" d="M47.6,6H16.4C10.68,6,6,10.68,6,16.4v31.2C6,53.32,10.68,58,16.4,58h31.2C53.32,58,58,53.32,58,47.6V16.4
	C58,10.68,53.32,6,47.6,6z M50.961,32.561c0,2.068-0.069,3.82-0.206,5.266c-0.017,0.585-0.035,1.129-0.054,1.616
	c0,0,0,0-0.519,1.665c-0.519,1.665-1.476,3.071-2.871,4.216s-3.26,2.058-5.596,2.738c-2.336,0.68-5.385,1.02-9.148,1.02
	c-4.542,0-7.986-0.37-10.332-1.111c-2.346-0.741-4.201-1.703-5.563-2.887c-1.362-1.184-2.26-2.425-2.692-3.724
	c-0.627-1.925-0.627-1.925-0.627-1.925c-0.022-0.462-0.043-0.979-0.064-1.539c-0.165-1.446-0.25-3.13-0.25-5.06V14.917h9.602v9.097
	c0,4.397,0.041,9.744,0.096,12.752c0.059,0.889,0.146,1.545,0.261,1.959c0.411,1.375,1.39,2.479,2.936,3.311
	c1.546,0.833,3.66,1.249,6.342,1.249c2.725,0,4.779-0.393,6.164-1.18s2.217-1.753,2.498-2.899c0.136-0.553,0.238-1.286,0.308-2.191
	c0.065-2.929,0.114-8.302,0.114-12.807v-9.292h9.602V32.561z"/>
</svg>
