<?xml version="1.0" encoding="utf-8"?>
<!-- Generator: Adobe Illustrator 17.1.0, SVG Export Plug-In . SVG Version: 6.00 Build 0)  -->
<!DOCTYPE svg PUBLIC "-//W3C//DTD SVG 1.1//EN" "http://www.w3.org/Graphics/SVG/1.1/DTD/svg11.dtd">
<svg version="1.1" id="Layer_1" xmlns="http://www.w3.org/2000/svg" xmlns:xlink="http://www.w3.org/1999/xlink" x="0px" y="0px"
	 viewBox="0 0 64 64" enable-background="new 0 0 64 64" xml:space="preserve">
<g>
	<path fill="#FFFFFF" d="M62,39.5L50.8,32v3.9c-0.6-0.1-1.2-0.2-1.9-0.2c-7.2,0-13.1,5.9-13.1,13.1S41.6,62,48.9,62
		c6.6,0,12-4.9,12.9-11.3h-5.7c-0.8,3.2-3.8,5.6-7.2,5.6c-4.1,0-7.5-3.4-7.5-7.5s3.4-7.5,7.5-7.5c0.7,0,1.3,0.1,1.9,0.3V47L62,39.5z
		"/>
	<circle fill="#FFFFFF" cx="14.2" cy="11.4" r="2.8"/>
	<circle fill="#FFFFFF" cx="21.7" cy="11.4" r="2.8"/>
	<circle fill="#FFFFFF" cx="29.2" cy="11.4" r="2.8"/>
	<path fill="#FFFFFF" d="M54.5,2h-45C5.4,2,2,5.4,2,9.5v45C2,58.6,5.4,62,9.5,62h18.8v-3.8H9.5c-2.1,0-3.8-1.7-3.8-3.8V20.8h52.5
		v7.5H62V9.5C62,5.4,58.6,2,54.5,2z M58.3,17H5.8V9.5c0-2.1,1.7-3.7,3.8-3.7h45c2.1,0,3.8,1.7,3.8,3.7V17z"/>
</g>
</svg>
