<?xml version="1.0" encoding="utf-8"?>
<!-- Generator: Adobe Illustrator 17.0.1, SVG Export Plug-In . SVG Version: 6.00 Build 0)  -->
<!DOCTYPE svg PUBLIC "-//W3C//DTD SVG 1.1//EN" "http://www.w3.org/Graphics/SVG/1.1/DTD/svg11.dtd" [
	<!ENTITY ns_extend "http://ns.adobe.com/Extensibility/1.0/">
	<!ENTITY ns_ai "http://ns.adobe.com/AdobeIllustrator/10.0/">
	<!ENTITY ns_graphs "http://ns.adobe.com/Graphs/1.0/">
	<!ENTITY ns_vars "http://ns.adobe.com/Variables/1.0/">
	<!ENTITY ns_imrep "http://ns.adobe.com/ImageReplacement/1.0/">
	<!ENTITY ns_sfw "http://ns.adobe.com/SaveForWeb/1.0/">
	<!ENTITY ns_custom "http://ns.adobe.com/GenericCustomNamespace/1.0/">
	<!ENTITY ns_adobe_xpath "http://ns.adobe.com/XPath/1.0/">
]>
<svg version="1.1" id="Layer_1" xmlns:x="&ns_extend;" xmlns:i="&ns_ai;" xmlns:graph="&ns_graphs;"
	 xmlns="http://www.w3.org/2000/svg" xmlns:xlink="http://www.w3.org/1999/xlink" x="0px" y="0px" width="64px" height="64px"
	 viewBox="0 0 64 64" enable-background="new 0 0 64 64" xml:space="preserve">
<metadata>
	<sfw  xmlns="&ns_sfw;">
		<slices></slices>
		<sliceSourceBounds  width="57.999" height="58" y="-61" x="3" bottomLeftOrigin="true"></sliceSourceBounds>
	</sfw>
</metadata>
<path fill="#999999" d="M55.313,61c-0.201,0-0.389-0.076-0.528-0.216L39.761,45.759l-0.678,0.435
	c-3.79,2.43-8.157,3.714-12.629,3.714C13.521,49.907,3,39.386,3,26.454S13.521,3,26.454,3s23.454,10.521,23.454,23.454
	c0,4.474-1.284,8.841-3.714,12.631l-0.435,0.678l15.025,15.023c0.286,0.286,0.286,0.771-0.001,1.059l-4.942,4.939
	C55.701,60.924,55.514,61,55.313,61z M26.454,7.987c-10.183,0-18.467,8.284-18.467,18.467c0,10.182,8.284,18.466,18.467,18.466
	c10.182,0,18.466-8.284,18.466-18.466C44.92,16.271,36.636,7.987,26.454,7.987z"/>
</svg>
