<?xml version="1.0" encoding="utf-8"?>
<!-- Generator: Adobe Illustrator 17.0.0, SVG Export Plug-In . SVG Version: 6.00 Build 0)  -->
<!DOCTYPE svg PUBLIC "-//W3C//DTD SVG 1.1//EN" "http://www.w3.org/Graphics/SVG/1.1/DTD/svg11.dtd" [
	<!ENTITY ns_extend "http://ns.adobe.com/Extensibility/1.0/">
	<!ENTITY ns_ai "http://ns.adobe.com/AdobeIllustrator/10.0/">
	<!ENTITY ns_graphs "http://ns.adobe.com/Graphs/1.0/">
	<!ENTITY ns_vars "http://ns.adobe.com/Variables/1.0/">
	<!ENTITY ns_imrep "http://ns.adobe.com/ImageReplacement/1.0/">
	<!ENTITY ns_sfw "http://ns.adobe.com/SaveForWeb/1.0/">
	<!ENTITY ns_custom "http://ns.adobe.com/GenericCustomNamespace/1.0/">
	<!ENTITY ns_adobe_xpath "http://ns.adobe.com/XPath/1.0/">
]>
<svg version="1.1" id="Layer_1" xmlns:x="&ns_extend;" xmlns:i="&ns_ai;" xmlns:graph="&ns_graphs;"
	 xmlns="http://www.w3.org/2000/svg" xmlns:xlink="http://www.w3.org/1999/xlink" x="0px" y="0px" width="64px" height="64px"
	 viewBox="0 0 64 64" style="enable-background:new 0 0 64 64;" xml:space="preserve">
<style type="text/css">
	.st0{fill:#FFFFFF;}
	.st1{fill:#6D6E71;}
</style>
<metadata>
	<sfw  xmlns="&ns_sfw;">
		<slices></slices>
		<sliceSourceBounds  height="56.5" width="57.442" x="3.279" y="-60.25" bottomLeftOrigin="true"></sliceSourceBounds>
	</sfw>
</metadata>
<g>
	<g>
		<path class="st0" d="M45.941,18.317c-0.871-6.541-4.498-10.176-7.998-12.184h21.13c0.633,0,1.147,0.515,1.147,1.148v9.888
			c0,0.633-0.515,1.148-1.147,1.148H45.941z"/>
		<path class="st1" d="M59.073,6.633c0.357,0,0.648,0.291,0.648,0.648v9.888c0,0.357-0.291,0.648-0.648,0.648H46.375
			c-0.859-5.574-3.693-9.038-6.718-11.183H59.073 M59.073,5.633H35.826c4.745,2.048,8.873,6.032,9.673,13.183h13.574
			c0.906,0,1.648-0.74,1.648-1.648V7.281C60.721,6.374,59.979,5.633,59.073,5.633L59.073,5.633z"/>
	</g>
	<g>
		<path class="st0" d="M39.436,38.092c2.762-5.186,4.626-9.182,5.684-12.184h13.954c0.633,0,1.147,0.515,1.147,1.148v9.887
			c0,0.633-0.515,1.148-1.147,1.148H39.436z"/>
		<path class="st1" d="M59.073,26.408c0.357,0,0.648,0.291,0.648,0.648v9.887c0,0.357-0.291,0.648-0.648,0.648H40.266
			c2.462-4.665,4.174-8.343,5.206-11.183H59.073 M59.073,25.408H44.764c-1.204,3.533-3.525,8.274-6.164,13.183h20.473
			c0.906,0,1.648-0.74,1.648-1.648v-9.887C60.721,26.149,59.979,25.408,59.073,25.408L59.073,25.408z"/>
	</g>
	<g>
		<path class="st0" d="M29.411,57.866c-0.392,0-0.748-0.198-0.958-0.52c0.52-0.893,1.098-1.879,1.72-2.938
			c1.536-2.619,3.272-5.578,5.065-8.726h23.835c0.633,0,1.147,0.515,1.147,1.147v9.888c0,0.633-0.515,1.147-1.147,1.147H29.411z"/>
		<path class="st1" d="M59.073,46.183c0.357,0,0.648,0.291,0.648,0.648v9.887c0,0.357-0.291,0.648-0.648,0.648H29.41
			c-0.119,0-0.234-0.035-0.334-0.096c0.468-0.802,0.979-1.674,1.523-2.602c1.497-2.552,3.183-5.427,4.928-8.486H59.073
			 M59.073,45.183H34.947c-2.648,4.655-5.239,9.011-7.063,12.148c0.245,0.605,0.837,1.035,1.527,1.035h29.663
			c0.906,0,1.648-0.74,1.648-1.648v-9.887C60.721,45.924,59.979,45.183,59.073,45.183L59.073,45.183z"/>
	</g>
	<g>
		<path class="st0" d="M22.701,59.224c-0.785-1.389-1.877-3.252-3.11-5.353l-1.506-2.57c-1.163-1.989-2.413-4.141-3.678-6.364
			c-1.364-2.4-2.558-4.553-3.647-6.581c-2.711-5.045-4.585-8.968-5.73-11.995c-0.83-2.194-1.25-3.861-1.25-4.955
			c0-2.526,0.39-4.833,1.158-6.855C6.4,10.7,9.212,7.854,13.295,6.092c2.752-1.188,6.093-1.842,9.406-1.842
			c3.315,0,6.657,0.654,9.409,1.842c3.809,1.644,8.526,5.196,9.374,12.78c0.092,0.822,0.139,1.675,0.139,2.534
			c0,0.894-0.286,2.186-0.851,3.841c-1.063,3.122-3.068,7.41-6.13,13.108c-1.078,2.007-2.306,4.221-3.648,6.581
			c-1.843,3.24-3.63,6.287-5.207,8.976c-0.675,1.151-1.3,2.216-1.854,3.168C23.471,57.876,23.055,58.598,22.701,59.224z
			 M22.701,14.727c-3.683,0-6.68,2.997-6.68,6.68s2.997,6.68,6.68,6.68c0.546,0,1.107-0.073,1.668-0.218
			c1.339-0.345,2.521-1.083,3.417-2.136c1.028-1.208,1.594-2.744,1.594-4.326c0-0.968-0.209-1.91-0.621-2.799
			c-0.845-1.826-2.445-3.161-4.39-3.663C23.809,14.8,23.247,14.727,22.701,14.727z"/>
		<path class="st1" d="M22.701,4.75c3.249,0,6.52,0.64,9.211,1.801c5.362,2.314,8.415,6.478,9.075,12.376
			c0.09,0.802,0.135,1.636,0.135,2.478c0,0.839-0.277,2.077-0.823,3.68c-1.041,3.055-3.093,7.44-6.098,13.032
			c-1.079,2.008-2.305,4.219-3.642,6.571c-1.84,3.236-3.627,6.281-5.202,8.968c-0.676,1.153-1.301,2.219-1.856,3.172
			c-0.301,0.518-0.566,0.976-0.801,1.385c-0.732-1.276-1.652-2.846-2.668-4.577l-1.517-2.589c-0.91-1.556-2.28-3.907-3.674-6.359
			c-1.337-2.35-2.562-4.561-3.642-6.571c-2.663-4.956-4.582-8.971-5.703-11.935c-0.808-2.137-1.218-3.745-1.218-4.777
			c0-2.465,0.379-4.712,1.126-6.677c1.413-3.72,4.135-6.471,8.088-8.177C16.184,5.39,19.455,4.75,22.701,4.75 M22.701,28.586
			c0.588,0,1.191-0.079,1.793-0.234c1.44-0.371,2.71-1.165,3.673-2.296c1.105-1.298,1.714-2.949,1.714-4.65
			c0-1.041-0.224-2.054-0.666-3.009c-0.908-1.963-2.629-3.398-4.72-3.937c-0.602-0.155-1.206-0.234-1.793-0.234
			c-3.959,0-7.18,3.221-7.18,7.18S18.742,28.586,22.701,28.586 M22.701,3.75c-2.927,0-6.405,0.502-9.604,1.883
			c-3.655,1.577-6.941,4.305-8.627,8.74c-0.754,1.986-1.191,4.311-1.191,7.033c0,1.232,0.481,3.011,1.283,5.131
			c1.28,3.383,3.391,7.651,5.757,12.054c1.181,2.197,2.421,4.425,3.654,6.592c1.266,2.225,2.517,4.379,3.68,6.37
			c2.163,3.7,4.017,6.823,5.048,8.697c0.425-0.773,0.996-1.768,1.665-2.919c1.824-3.137,4.415-7.493,7.063-12.148
			c1.232-2.167,2.473-4.394,3.654-6.592c2.638-4.909,4.96-9.651,6.164-13.183c0.552-1.621,0.876-2.996,0.876-4.002
			c0-0.907-0.05-1.768-0.141-2.59c-0.8-7.151-4.927-11.135-9.673-13.183C29.109,4.252,25.63,3.75,22.701,3.75L22.701,3.75z
			 M22.701,27.586c-3.414,0-6.18-2.766-6.18-6.18c0-3.414,2.766-6.18,6.18-6.18c0.534,0,1.05,0.075,1.544,0.202
			c1.808,0.466,3.292,1.725,4.062,3.388c0.365,0.788,0.574,1.663,0.574,2.59c0,1.528-0.557,2.924-1.475,4.002
			c-0.812,0.954-1.91,1.653-3.161,1.975C23.751,27.511,23.235,27.586,22.701,27.586L22.701,27.586z"/>
	</g>
</g>
</svg>
