<?xml version="1.0" encoding="utf-8"?>
<!-- Generator: Adobe Illustrator 17.0.0, SVG Export Plug-In . SVG Version: 6.00 Build 0)  -->
<!DOCTYPE svg PUBLIC "-//W3C//DTD SVG 1.1//EN" "http://www.w3.org/Graphics/SVG/1.1/DTD/svg11.dtd" [
	<!ENTITY ns_extend "http://ns.adobe.com/Extensibility/1.0/">
	<!ENTITY ns_ai "http://ns.adobe.com/AdobeIllustrator/10.0/">
	<!ENTITY ns_graphs "http://ns.adobe.com/Graphs/1.0/">
	<!ENTITY ns_vars "http://ns.adobe.com/Variables/1.0/">
	<!ENTITY ns_imrep "http://ns.adobe.com/ImageReplacement/1.0/">
	<!ENTITY ns_sfw "http://ns.adobe.com/SaveForWeb/1.0/">
	<!ENTITY ns_custom "http://ns.adobe.com/GenericCustomNamespace/1.0/">
	<!ENTITY ns_adobe_xpath "http://ns.adobe.com/XPath/1.0/">
]>
<svg version="1.1" id="Layer_1" xmlns:x="&ns_extend;" xmlns:i="&ns_ai;" xmlns:graph="&ns_graphs;"
	 xmlns="http://www.w3.org/2000/svg" xmlns:xlink="http://www.w3.org/1999/xlink" x="0px" y="0px" width="84.105px" height="64px"
	 viewBox="0 0 84.105 64" enable-background="new 0 0 84.105 64" xml:space="preserve">
<metadata>
	<sfw  xmlns="&ns_sfw;">
		<slices></slices>
		<sliceSourceBounds  width="79.875" height="60" x="-7.763" y="-62" bottomLeftOrigin="true"></sliceSourceBounds>
	</sfw>
</metadata>
<g>
	<path fill="#FFFFFF" d="M81.99,16.06l-3.057-3.104c-3.537-3.595-7.076-7.189-10.608-10.79c-0.125-0.128-0.229-0.163-0.489-0.163
		L44.518,2.006c-9.39,0-18.78-0.002-28.17-0.006c-0.253,0-0.39,0.056-0.562,0.231C11.946,6.148,8.1,10.058,4.243,13.958
		c-0.539,0.545-1.102,1.067-1.678,1.602l-0.449,0.419L42.088,62L81.99,16.06z M7.934,13.794c2.931-2.978,5.863-5.956,8.787-8.939
		l0.15-0.153h0.214c0,0,40.317,0.012,49.994,0.019h0.213l0.15,0.151c3.34,3.373,6.671,6.757,9.999,10.14l0.86,0.873L42.088,57.582
		L5.875,15.886L7.934,13.794z"/>
	<polygon fill="#FFFFFF" points="48.52,32.581 36.168,32.581 33.639,39.54 42.111,49.141 42.111,49.178 42.127,49.16 42.143,49.178 
		42.143,49.142 51.019,39.083 	"/>
	<polygon fill="#FFFFFF" points="46.518,27.374 42.26,15.907 38.086,27.374 	"/>
	<polygon fill="#FFFFFF" points="22.059,9.051 13.955,17.232 29.048,34.337 38.897,9.051 	"/>
	<polygon fill="#FFFFFF" points="45.773,9.051 55.682,33.798 70.299,17.232 62.195,9.051 	"/>
</g>
</svg>
