<?xml version="1.0" encoding="utf-8"?>
<!-- Generator: Adobe Illustrator 17.0.0, SVG Export Plug-In . SVG Version: 6.00 Build 0)  -->
<!DOCTYPE svg [
	<!ENTITY ns_extend "http://ns.adobe.com/Extensibility/1.0/">
	<!ENTITY ns_ai "http://ns.adobe.com/AdobeIllustrator/10.0/">
	<!ENTITY ns_graphs "http://ns.adobe.com/Graphs/1.0/">
	<!ENTITY ns_vars "http://ns.adobe.com/Variables/1.0/">
	<!ENTITY ns_imrep "http://ns.adobe.com/ImageReplacement/1.0/">
	<!ENTITY ns_sfw "http://ns.adobe.com/SaveForWeb/1.0/">
	<!ENTITY ns_custom "http://ns.adobe.com/GenericCustomNamespace/1.0/">
	<!ENTITY ns_adobe_xpath "http://ns.adobe.com/XPath/1.0/">
]>
<svg version="1.2" baseProfile="tiny" id="Layer_1" xmlns:x="&ns_extend;" xmlns:i="&ns_ai;" xmlns:graph="&ns_graphs;"
	 xmlns="http://www.w3.org/2000/svg" xmlns:xlink="http://www.w3.org/1999/xlink" x="0px" y="0px" width="64px" height="64px"
	 viewBox="0 0 64 64" xml:space="preserve">
<metadata>
	<sfw  xmlns="&ns_sfw;">
		<slices></slices>
		<sliceSourceBounds  width="60" height="60" x="2" y="-62" bottomLeftOrigin="true"></sliceSourceBounds>
	</sfw>
</metadata>
<g>
	<path fill="#FFFFFF" d="M35.75,17h-7.5c-4.124,0-7.5,3.375-7.5,7.5v15h3.75V62h15V39.5h3.75v-15C43.25,20.375,39.874,17,35.75,17z"
		/>
	<circle fill="#FFFFFF" cx="32" cy="7.625" r="5.625"/>
	<circle fill="#FFFFFF" cx="54.5" cy="13.25" r="3.75"/>
	<path fill="#FFFFFF" d="M58.25,20.75h-7.5c-2.062,0-3.75,1.688-3.75,3.75v15h3.75v15h7.5v-15H62v-15
		C62,22.438,60.312,20.75,58.25,20.75z"/>
	<circle fill="#FFFFFF" cx="9.5" cy="13.25" r="3.75"/>
	<path fill="#FFFFFF" d="M13.25,20.75h-7.5C3.688,20.75,2,22.438,2,24.5v15h3.75v15h7.5v-15H17v-15
		C17,22.438,15.312,20.75,13.25,20.75z"/>
</g>
</svg>
