<?xml version="1.0" encoding="utf-8"?>
<!-- Generator: Adobe Illustrator 17.1.0, SVG Export Plug-In . SVG Version: 6.00 Build 0)  -->
<!DOCTYPE svg PUBLIC "-//W3C//DTD SVG 1.1//EN" "http://www.w3.org/Graphics/SVG/1.1/DTD/svg11.dtd">
<svg version="1.1" id="Layer_1" xmlns="http://www.w3.org/2000/svg" xmlns:xlink="http://www.w3.org/1999/xlink" x="0px" y="0px"
	 viewBox="0 0 64 64" enable-background="new 0 0 64 64" xml:space="preserve">
<g>
	<polygon fill="#FFFFFF" points="32,24.5 32,22.7 32,16.7 32,15.7 2,15.7 2,44.9 4,44.9 32,44.9 32,30.5 32,28.8 	"/>
	<path fill="#FFFFFF" d="M32,2H2v12h30V2z M9.7,10.6C8.8,10.6,8,9.8,8,8.9c0-0.9,0.8-1.7,1.7-1.7c0.9,0,1.7,0.8,1.7,1.7
		C11.4,9.8,10.7,10.6,9.7,10.6z M16.6,10.6c-0.9,0-1.7-0.8-1.7-1.7c0-0.9,0.8-1.7,1.7-1.7c0.9,0,1.7,0.8,1.7,1.7
		C18.3,9.8,17.5,10.6,16.6,10.6z M23.4,10.6c-0.9,0-1.7-0.8-1.7-1.7c0-0.9,0.8-1.7,1.7-1.7c0.9,0,1.7,0.8,1.7,1.7
		C25.1,9.8,24.4,10.6,23.4,10.6z"/>
</g>
<g>
	<polygon fill="#FFFFFF" points="32,46.9 12,46.9 12,62 56,62 56,32.5 34.2,32.5 34.2,46.9 	"/>
	<path fill="#FFFFFF" d="M35.2,25.6c0,0.7-0.4,1.3-1,1.6v3.6H56V18.7H34.2V24C34.8,24.3,35.2,24.9,35.2,25.6z M47.3,23.9
		c1,0,1.7,0.8,1.7,1.7s-0.8,1.7-1.7,1.7s-1.7-0.8-1.7-1.7S46.4,23.9,47.3,23.9z M40.4,23.9c1,0,1.7,0.8,1.7,1.7s-0.8,1.7-1.7,1.7
		s-1.7-0.8-1.7-1.7S39.4,23.9,40.4,23.9z"/>
</g>
<g>
	<polygon fill="#FFFFFF" points="58,32.7 58,33.7 62,33.7 62,18.3 58,18.3 	"/>
	<path fill="#FFFFFF" d="M62,6H34v10v0.7h28V6z M42.1,13.7c-0.8,0-1.5-0.7-1.5-1.5s0.7-1.5,1.5-1.5c0.8,0,1.5,0.7,1.5,1.5
		S42.9,13.7,42.1,13.7z M48.2,13.7c-0.8,0-1.5-0.7-1.5-1.5s0.7-1.5,1.5-1.5c0.8,0,1.5,0.7,1.5,1.5S49,13.7,48.2,13.7z M54.3,13.7
		c-0.8,0-1.5-0.7-1.5-1.5s0.7-1.5,1.5-1.5s1.5,0.7,1.5,1.5S55.2,13.7,54.3,13.7z"/>
</g>
</svg>
