<?xml version="1.0" encoding="utf-8"?>
<!-- Generator: Adobe Illustrator 17.1.0, SVG Export Plug-In . SVG Version: 6.00 Build 0)  -->
<!DOCTYPE svg PUBLIC "-//W3C//DTD SVG 1.1//EN" "http://www.w3.org/Graphics/SVG/1.1/DTD/svg11.dtd">
<svg version="1.1" id="Layer_1" xmlns="http://www.w3.org/2000/svg" xmlns:xlink="http://www.w3.org/1999/xlink" x="0px" y="0px"
	 viewBox="0 0 64 64" enable-background="new 0 0 64 64" xml:space="preserve">
<g>
	<path fill="#FFFFFF" d="M2,60.7C2,61.4,2.4,62,3,62h58c0.6,0,1-0.6,1-1.3V18H2V60.7z"/>
	<path fill="#FFFFFF" d="M62,2H2v14h60V2z M36,12c-1.1,0-2-0.9-2-2s0.9-2,2-2s2,0.9,2,2S37.1,12,36,12z M44,12c-1.1,0-2-0.9-2-2
		s0.9-2,2-2s2,0.9,2,2S45.1,12,44,12z M52,12c-1.1,0-2-0.9-2-2s0.9-2,2-2s2,0.9,2,2S53.1,12,52,12z"/>
</g>
</svg>
