<?xml version="1.0" encoding="utf-8"?>
<!-- Generator: Adobe Illustrator 17.1.0, SVG Export Plug-In . SVG Version: 6.00 Build 0)  -->
<!DOCTYPE svg PUBLIC "-//W3C//DTD SVG 1.1//EN" "http://www.w3.org/Graphics/SVG/1.1/DTD/svg11.dtd">
<svg version="1.1" id="Layer_1" xmlns="http://www.w3.org/2000/svg" xmlns:xlink="http://www.w3.org/1999/xlink" x="0px" y="0px"
	 viewBox="0 0 64 64" enable-background="new 0 0 64 64" xml:space="preserve">
<path fill="#FFFFFF" d="M44.8,32l16.9-16.9c0.4-0.4,0.4-1,0-1.4L50.4,2.3c-0.4-0.4-1-0.4-1.4,0L32,19.2L15.1,2.3
	c-0.4-0.4-1-0.4-1.4,0L2.3,13.6c-0.4,0.4-0.4,1,0,1.4L19.2,32L2.3,48.9c-0.4,0.4-0.4,1,0,1.4l11.3,11.3c0.4,0.4,1,0.4,1.4,0L32,44.8
	l16.9,16.9c0.2,0.2,0.5,0.3,0.7,0.3c0.3,0,0.5-0.1,0.7-0.3l11.3-11.3c0.4-0.4,0.4-1,0-1.4L44.8,32z"/>
</svg>
