<?xml version="1.0" encoding="utf-8"?>
<!-- Generator: Adobe Illustrator 17.0.0, SVG Export Plug-In . SVG Version: 6.00 Build 0)  -->
<!DOCTYPE svg PUBLIC "-//W3C//DTD SVG 1.1//EN" "http://www.w3.org/Graphics/SVG/1.1/DTD/svg11.dtd" [
	<!ENTITY ns_flows "http://ns.adobe.com/Flows/1.0/">
	<!ENTITY ns_extend "http://ns.adobe.com/Extensibility/1.0/">
	<!ENTITY ns_ai "http://ns.adobe.com/AdobeIllustrator/10.0/">
	<!ENTITY ns_graphs "http://ns.adobe.com/Graphs/1.0/">
	<!ENTITY ns_vars "http://ns.adobe.com/Variables/1.0/">
	<!ENTITY ns_imrep "http://ns.adobe.com/ImageReplacement/1.0/">
	<!ENTITY ns_sfw "http://ns.adobe.com/SaveForWeb/1.0/">
	<!ENTITY ns_custom "http://ns.adobe.com/GenericCustomNamespace/1.0/">
	<!ENTITY ns_adobe_xpath "http://ns.adobe.com/XPath/1.0/">
]>
<svg version="1.1" id="Layer_1" xmlns:x="&ns_extend;" xmlns:i="&ns_ai;" xmlns:graph="&ns_graphs;"
	 xmlns="http://www.w3.org/2000/svg" xmlns:xlink="http://www.w3.org/1999/xlink" xmlns:a="http://ns.adobe.com/AdobeSVGViewerExtensions/3.0/"
	 x="0px" y="0px" width="64px" height="64px" viewBox="0 0 64 64" style="enable-background:new 0 0 64 64;" xml:space="preserve">
<metadata>
	<sfw  xmlns="&ns_sfw;">
		<slices></slices>
		<sliceSourceBounds  height="60" width="60" y="-62" x="2" bottomLeftOrigin="true"></sliceSourceBounds>
	</sfw>
</metadata>
<g>
	<polygon style="fill:#FFFFFF;" points="32.395,17.197 24.796,17.197 24.796,24.796 17.197,24.796 17.197,32.395 24.796,32.395 
		24.796,39.993 32.395,39.993 32.395,32.395 39.993,32.395 39.993,24.796 32.395,24.796 	"/>
	<path style="fill:#FFFFFF;" d="M61.446,53.386L50.98,42.921c2.653-4.137,4.211-9.046,4.211-14.325C55.191,13.906,43.284,2,28.595,2
		S2,13.906,2,28.595s11.906,26.595,26.595,26.595c5.28,0,10.186-1.558,14.323-4.211l10.465,10.467c0.738,0.738,1.948,0.738,2.686,0
		l5.377-5.373C62.185,55.334,62.185,54.124,61.446,53.386z M28.595,47.592c-10.474,0-18.997-8.523-18.997-18.997
		S18.121,9.599,28.595,9.599s18.997,8.523,18.997,18.997S39.069,47.592,28.595,47.592z"/>
</g>
</svg>
