<?xml version="1.0" encoding="utf-8"?>
<!-- Generator: Adobe Illustrator 17.0.0, SVG Export Plug-In . SVG Version: 6.00 Build 0)  -->
<!DOCTYPE svg PUBLIC "-//W3C//DTD SVG 1.1//EN" "http://www.w3.org/Graphics/SVG/1.1/DTD/svg11.dtd">
<svg version="1.1" id="Layer_1" xmlns="http://www.w3.org/2000/svg" xmlns:xlink="http://www.w3.org/1999/xlink" x="0px" y="0px"
	 width="64px" height="64px" viewBox="0 0 64 64" enable-background="new 0 0 64 64" xml:space="preserve">
<g>
	<rect x="17.197" y="24.796" fill="#FFFFFF" width="22.796" height="7.599"/>
	<path fill="#FFFFFF" d="M61.446,53.386L50.98,42.921c2.653-4.137,4.211-9.046,4.211-14.325C55.191,13.906,43.284,2,28.595,2
		S2,13.906,2,28.595s11.906,26.595,26.595,26.595c5.28,0,10.186-1.558,14.324-4.211l10.465,10.467c0.738,0.738,1.948,0.738,2.686,0
		l5.376-5.373C62.185,55.334,62.185,54.124,61.446,53.386z M28.595,47.592c-10.474,0-18.997-8.523-18.997-18.997
		S18.121,9.599,28.595,9.599s18.997,8.523,18.997,18.997S39.069,47.592,28.595,47.592z"/>
</g>
</svg>
